<svg xmlns="http://www.w3.org/2000/svg" viewBox="0 0 60 54.201">
  <defs>
    <style>
      .cls-1 {
        fill: #1F7CBF;
      }
    </style>
  </defs>
  <g id="XMLID_1_" transform="translate(0.2)">
    <g id="XMLID_12_" transform="translate(53.074 12.551)">
      <g id="XMLID_17_" transform="translate(2.092 1.192)">
        <path id="XMLID_18_" class="cls-1" d="M211.76,56.11v.053c0,.026-.026.026-.053.026s-.053.026-.106.026h-.291a.1.1,0,0,1-.079-.026c-.026,0-.026-.026-.053-.053,0-.026-.026-.053-.026-.079l-.4-1.006a1.62,1.62,0,0,1-.132-.318.577.577,0,0,0-.185-.238.625.625,0,0,0-.238-.159,1.175,1.175,0,0,0-.344-.053h-.371V56.11c0,.026,0,.026-.026.053,0,.026-.026.026-.053.026s-.053.026-.079.026h-.265a.1.1,0,0,1-.079-.026c-.026,0-.026-.026-.053-.026,0-.026-.026-.026-.026-.053V52.138a.206.206,0,0,1,.079-.185.447.447,0,0,1,.132-.053h1.165a.393.393,0,0,1,.185.026,2.238,2.238,0,0,1,.45.132.723.723,0,0,1,.318.238.992.992,0,0,1,.185.318,1.029,1.029,0,0,1,.053.4,2.045,2.045,0,0,1-.053.4,1.028,1.028,0,0,1-.159.291,1.194,1.194,0,0,1-.265.238c-.106.053-.212.106-.344.159a1.15,1.15,0,0,1,.185.106l.159.159a.694.694,0,0,1,.132.238,3.105,3.105,0,0,1,.132.291l.4.953a1.039,1.039,0,0,1,.053.159C211.76,56.057,211.76,56.084,211.76,56.11Zm-.847-3.019a.722.722,0,0,0-.106-.424.609.609,0,0,0-.371-.238.393.393,0,0,0-.185-.026h-.741v1.456h.556a1.6,1.6,0,0,0,.4-.053.45.45,0,0,0,.265-.159.386.386,0,0,0,.159-.238C210.886,53.3,210.912,53.2,210.912,53.092Z" transform="translate(-208.9 -51.9)"/>
      </g>
      <g id="XMLID_13_">
        <path id="XMLID_14_" class="cls-1" d="M204.363,54.125a3.363,3.363,0,1,1,3.363-3.363A3.334,3.334,0,0,1,204.363,54.125Zm0-6.169a2.807,2.807,0,1,0,2.807,2.807A2.808,2.808,0,0,0,204.363,47.956Z" transform="translate(-201 -47.4)"/>
      </g>
    </g>
    <path id="XMLID_2_" class="cls-1" d="M52.306,19.832a10.413,10.413,0,0,0-1.721-3.76,8.486,8.486,0,0,0-3.124-2.542,11.038,11.038,0,0,0-4.74-.927,10,10,0,0,0-4.342.98A14.9,14.9,0,0,0,34.3,16.522V1.324a.831.831,0,0,0-.185-.556A1.763,1.763,0,0,0,33.48.344,5.031,5.031,0,0,0,32.289.079,18.226,18.226,0,0,0,30.409,0a18.226,18.226,0,0,0-1.88.079,5.031,5.031,0,0,0-1.192.265A1.281,1.281,0,0,0,26.7.768a.831.831,0,0,0-.185.556V13.319H17.779a17.034,17.034,0,0,0-2.2-.424,18.732,18.732,0,0,0-2.489-.159,15.061,15.061,0,0,0-4.634.688,10.164,10.164,0,0,0-3.6,2.012,8.929,8.929,0,0,0-2.357,3.2,10.637,10.637,0,0,0-.847,4.316,9.691,9.691,0,0,0,.635,3.76A8.078,8.078,0,0,0,4.01,29.311a10.594,10.594,0,0,0-2.171,2.7,6.671,6.671,0,0,0-.821,3.31A5.257,5.257,0,0,0,1.733,38a5.127,5.127,0,0,0,2.039,1.933,15.788,15.788,0,0,0-1.695,1.483A8.788,8.788,0,0,0,.833,43.027,6.552,6.552,0,0,0,.065,44.8,6.684,6.684,0,0,0-.2,46.734a6.5,6.5,0,0,0,.715,3.019,6.115,6.115,0,0,0,2.3,2.357A13,13,0,0,0,6.9,53.645a27.978,27.978,0,0,0,6.011.556,23.455,23.455,0,0,0,6.3-.768,14.184,14.184,0,0,0,4.5-2.092,8.543,8.543,0,0,0,2.674-3.124,8.357,8.357,0,0,0,.9-3.839,7.771,7.771,0,0,0-.159-1.615,1.291,1.291,0,0,0,.185.079,5.206,5.206,0,0,0,1.192.238,18.228,18.228,0,0,0,1.88.079,18.228,18.228,0,0,0,1.88-.079,5.206,5.206,0,0,0,1.192-.238,1.458,1.458,0,0,0,.635-.4.809.809,0,0,0,.185-.53V23.592a16.022,16.022,0,0,1,3.151-3.151,5.2,5.2,0,0,1,2.992-1.086,4.453,4.453,0,0,1,2.039.45,3.666,3.666,0,0,1,1.43,1.271,6.013,6.013,0,0,1,.847,1.959,13.81,13.81,0,0,1,.291,3.151v15.7a.721.721,0,0,0,.185.53,1.353,1.353,0,0,0,.609.4,5.206,5.206,0,0,0,1.192.238,18.794,18.794,0,0,0,1.906.079,18.026,18.026,0,0,0,1.853-.079,5.206,5.206,0,0,0,1.192-.238,1.218,1.218,0,0,0,.609-.4.985.985,0,0,0,.185-.53V25.022A19.017,19.017,0,0,0,52.306,19.832ZM8.75,21.077A4.333,4.333,0,0,1,9.6,19.541a3.887,3.887,0,0,1,1.43-1.059,4.788,4.788,0,0,1,2.012-.4,4.733,4.733,0,0,1,3.5,1.244A4.71,4.71,0,0,1,17.779,22.8a5.662,5.662,0,0,1-.291,1.774,4.333,4.333,0,0,1-.874,1.509,3.774,3.774,0,0,1-1.43,1.006,5.288,5.288,0,0,1-2.039.371A4.61,4.61,0,0,1,9.729,26.24a4.453,4.453,0,0,1-1.244-3.31A5.42,5.42,0,0,1,8.75,21.077ZM19.262,46.284A3.5,3.5,0,0,1,18.2,47.608a5.733,5.733,0,0,1-1.933.953,10.607,10.607,0,0,1-2.966.344,9.876,9.876,0,0,1-4.4-.794,2.55,2.55,0,0,1-1.562-2.357,5.789,5.789,0,0,1,.079-.953,2.447,2.447,0,0,1,.4-.953,7.372,7.372,0,0,1,.768-1.033,7.956,7.956,0,0,1,1.271-1.139l5.534.159a6.041,6.041,0,0,1,3.045.794,2.4,2.4,0,0,1,1.112,2.118A3.694,3.694,0,0,1,19.262,46.284Zm5.507-7.705a9.021,9.021,0,0,0-3.1-1.615,16.293,16.293,0,0,0-4.184-.662l-6.7-.238a3.936,3.936,0,0,1-2.2-.635A1.725,1.725,0,0,1,7.8,33.972a2.778,2.778,0,0,1,.291-1.244,4.334,4.334,0,0,1,.662-.953,6.967,6.967,0,0,0,1.853.768,9.831,9.831,0,0,0,2.542.318,15.6,15.6,0,0,0,4.713-.662,10.209,10.209,0,0,0,3.6-1.933,8.318,8.318,0,0,0,2.3-3.151,10.83,10.83,0,0,0,.794-4.263,6.879,6.879,0,0,0-.291-1.959,4.377,4.377,0,0,0-.98-1.695h3.23V40.856A6.336,6.336,0,0,0,24.769,38.579Z"/>
  </g>
</svg>
